<svg width="111" height="15" viewBox="0 0 111 15" fill="none" xmlns="http://www.w3.org/2000/svg">
<path d="M6.00391 11.8242L4.7832 14.5H0.818359L8.08398 0.222656H12.9961L14.1973 14.5H10.4766L10.3789 11.8242H6.00391ZM10.2617 8.77734L10.0957 4.63672L10.0762 3.79688C10.0762 3.26302 10.0892 2.83659 10.1152 2.51758C9.95247 3.11003 9.75391 3.65039 9.51953 4.13867L7.40039 8.77734H10.2617ZM21.0332 14.6953C20.2129 14.6953 19.4674 14.5163 18.7969 14.1582C18.1328 13.7936 17.6217 13.2956 17.2637 12.6641C16.9056 12.026 16.7266 11.3294 16.7266 10.5742C16.7266 10.5482 16.7266 10.5221 16.7266 10.4961C16.7266 10.0794 16.7656 9.65951 16.8438 9.23633L18.7871 0.222656H22.6055L20.7012 9.13867C20.61 9.5944 20.5645 9.96875 20.5645 10.2617C20.5645 11.0885 20.9583 11.502 21.7461 11.502C22.3451 11.502 22.8203 11.2969 23.1719 10.8867C23.5299 10.4701 23.8001 9.82227 23.9824 8.94336L25.8477 0.222656H29.666L27.7227 9.32422C27.3385 11.1536 26.6061 12.5078 25.5254 13.3867C24.4447 14.2591 22.9766 14.6953 21.1211 14.6953C21.0951 14.6953 21.0658 14.6953 21.0332 14.6953ZM31.8438 14.5L34.1582 3.37695H31.0625L31.7363 0.222656H41.7754L41.082 3.37695H37.9766L35.6621 14.5H31.8438ZM48.9238 -0.00195312C50.6165 -0.00195312 51.9316 0.483073 52.8691 1.45312C53.8132 2.41667 54.2852 3.76758 54.2852 5.50586C54.2852 7.24414 53.9596 8.82943 53.3086 10.2617C52.6641 11.6875 51.7721 12.7845 50.6328 13.5527C49.4935 14.3145 48.1719 14.6953 46.668 14.6953C44.9167 14.6953 43.5625 14.2103 42.6055 13.2402C41.6549 12.2702 41.1797 10.9225 41.1797 9.19727C41.1797 7.46549 41.515 5.88021 42.1855 4.44141C42.8561 3.0026 43.7676 1.90234 44.9199 1.14062C46.0788 0.378906 47.4134 -0.00195312 48.9238 -0.00195312ZM50.4277 5.53516C50.4277 4.78646 50.2682 4.20378 49.9492 3.78711C49.6367 3.37044 49.1712 3.16211 48.5527 3.16211C47.9342 3.16211 47.3548 3.4388 46.8145 3.99219C46.2741 4.54557 45.8444 5.29753 45.5254 6.24805C45.2064 7.19206 45.0469 8.16862 45.0469 9.17773C45.0469 10.7533 45.6979 11.541 47 11.541C47.6185 11.541 48.1914 11.2741 48.7188 10.7402C49.2461 10.2064 49.6628 9.47396 49.9688 8.54297C50.2747 7.61198 50.4277 6.60938 50.4277 5.53516ZM60.6523 4.25586H60.5742C60.1055 7.13346 59.8255 8.80013 59.7344 9.25586L58.6309 14.5H55.2324L58.25 0.222656H63.3086V10.3594H63.3867L68.0547 0.222656H73.1914L70.1348 14.5H66.707L67.8496 9.13867C68.1686 7.66732 68.5202 6.24805 68.9043 4.88086L69.0508 4.25586H68.9727L64.2656 14.5H60.6523V4.25586ZM73.416 14.5L76.4336 0.222656H84.9102L84.2754 3.31836H79.6172L79.1582 5.56445H83.4941L82.791 8.66016H78.4551L77.8984 11.3555H82.5566L81.8926 14.5H73.416ZM91.4629 0.222656C93.1165 0.222656 94.3763 0.551432 95.2422 1.20898C96.1081 1.86654 96.541 2.8431 96.541 4.13867C96.541 5.16732 96.3066 6.05924 95.8379 6.81445C95.3757 7.56315 94.6921 8.13281 93.7871 8.52344L95.9746 13.5625L96.3652 14.5H92.2051L90.3008 9.30469H89.5879L88.4844 14.5H84.666L87.6836 0.222656H91.4629ZM90.7012 6.4043C91.3262 6.4043 91.8177 6.22852 92.1758 5.87695C92.5404 5.51888 92.7227 5.02083 92.7227 4.38281C92.7227 3.97917 92.6087 3.67318 92.3809 3.46484C92.1595 3.25 91.834 3.14258 91.4043 3.14258H90.8867L90.2031 6.4043H90.7012ZM105.955 3.18164C105.252 3.18164 104.617 3.43555 104.051 3.94336C103.484 4.45117 103.038 5.14779 102.713 6.0332C102.394 6.91862 102.234 7.88867 102.234 8.94336C102.234 10.6751 102.941 11.541 104.354 11.541C104.874 11.541 105.418 11.4759 105.984 11.3457C106.551 11.209 107.205 10.9811 107.947 10.6621V13.8164C106.626 14.4023 105.193 14.6953 103.65 14.6953C101.958 14.6953 100.652 14.2135 99.7344 13.25C98.8229 12.2799 98.3672 10.9225 98.3672 9.17773C98.3672 7.42643 98.696 5.83138 99.3535 4.39258C100.011 2.94727 100.906 1.85352 102.039 1.11133C103.172 0.369141 104.477 -0.00195312 105.955 -0.00195312C107.674 -0.00195312 109.24 0.424479 110.652 1.27734L109.207 4.25586C108.576 3.88477 108.006 3.61458 107.498 3.44531C106.997 3.26953 106.482 3.18164 105.955 3.18164Z" fill="#474DFF"/>
</svg>
