<svg width="24" height="24" viewBox="0 0 24 24" fill="currentColor" xmlns="http://www.w3.org/2000/svg">
<path d="M5.69001 6.88C5.50001 6.88 5.3 6.8 5.16 6.66C4.87 6.37 4.87 5.89 5.16 5.6L8.79 1.97C9.08001 1.68 9.56001 1.68 9.85001 1.97C10.14 2.26 10.14 2.74 9.85001 3.03L6.22 6.66C6.07 6.8 5.88001 6.88 5.69001 6.88Z" fill="currentColor"/>
<path d="M19.31 6.88C19.12 6.88 18.93 6.81 18.78 6.66L15.15 3.03C14.86 2.74 14.86 2.26 15.15 1.97C15.44 1.68 15.92 1.68 16.21 1.97L19.84 5.6C20.13 5.89 20.13 6.37 19.84 6.66C19.7 6.8 19.5 6.88 19.31 6.88Z" fill="currentColor"/>
<path d="M20.71 11.1C20.64 11.1 20.57 11.1 20.5 11.1H20.27H4.5C3.8 11.11 3 11.11 2.42 10.53C1.96 10.08 1.75 9.38001 1.75 8.35001C1.75 5.60001 3.76 5.60001 4.72 5.60001H20.28C21.24 5.60001 23.25 5.60001 23.25 8.35001C23.25 9.39001 23.04 10.08 22.58 10.53C22.06 11.05 21.36 11.1 20.71 11.1ZM4.72 9.60001H20.51C20.96 9.61001 21.38 9.61001 21.52 9.47001C21.59 9.40001 21.74 9.16001 21.74 8.35001C21.74 7.22001 21.46 7.10001 20.27 7.10001H4.72C3.53 7.10001 3.25 7.22001 3.25 8.35001C3.25 9.16001 3.41 9.40001 3.47 9.47001C3.61 9.60001 4.04 9.60001 4.48 9.60001H4.72Z" fill="currentColor"/>
<path d="M10.26 18.8C9.85001 18.8 9.51001 18.46 9.51001 18.05V14.5C9.51001 14.09 9.85001 13.75 10.26 13.75C10.67 13.75 11.01 14.09 11.01 14.5V18.05C11.01 18.47 10.67 18.8 10.26 18.8Z" fill="currentColor"/>
<path d="M14.86 18.8C14.45 18.8 14.11 18.46 14.11 18.05V14.5C14.11 14.09 14.45 13.75 14.86 13.75C15.27 13.75 15.61 14.09 15.61 14.5V18.05C15.61 18.47 15.27 18.8 14.86 18.8Z" fill="currentColor"/>
<path d="M15.39 23.25H9.36C5.78 23.25 4.98 21.12 4.67 19.27L3.26 10.62C3.19 10.21 3.47 9.83 3.88 9.76C4.29 9.69 4.67 9.97 4.74 10.38L6.15 19.02C6.44 20.79 7.04 21.75 9.36 21.75H15.39C17.96 21.75 18.25 20.85 18.58 19.11L20.26 10.36C20.34 9.95 20.73 9.68 21.14 9.77C21.55 9.85 21.81 10.24 21.73 10.65L20.05 19.4C19.66 21.43 19.01 23.25 15.39 23.25Z" fill="currentColor"/>
</svg>
