<svg width="24" height="24" viewBox="0 0 24 24" fill="none" xmlns="http://www.w3.org/2000/svg">
<path d="M12.5 22.15C12.19 22.15 11.89 22.11 11.64 22.02C7.82 20.71 1.75 16.06 1.75 9.19001C1.75 5.69001 4.58 2.85001 8.06 2.85001C9.75 2.85001 11.33 3.51001 12.5 4.69001C13.67 3.51001 15.25 2.85001 16.94 2.85001C20.42 2.85001 23.25 5.70001 23.25 9.19001C23.25 16.07 17.18 20.71 13.36 22.02C13.11 22.11 12.81 22.15 12.5 22.15ZM8.06 4.35001C5.41 4.35001 3.25 6.52001 3.25 9.19001C3.25 16.02 9.82 19.82 12.13 20.61C12.31 20.67 12.7 20.67 12.88 20.61C15.18 19.82 21.76 16.03 21.76 9.19001C21.76 6.52001 19.6 4.35001 16.95 4.35001C15.43 4.35001 14.02 5.06001 13.11 6.29001C12.83 6.67001 12.19 6.67001 11.91 6.29001C10.98 5.05001 9.58 4.35001 8.06 4.35001Z" fill="#22252C"/>
</svg>
